<svg xmlns="http://www.w3.org/2000/svg" xmlns:xlink="http://www.w3.org/1999/xlink" width="200" zoomAndPan="magnify" viewBox="0 0 150 149.999998" height="200" preserveAspectRatio="xMidYMid meet" version="1.0"><path fill="#0097b2" d="M 11.683594 36.363281 C 11.675781 36.394531 11.664062 36.417969 11.65625 36.445312 C 11.671875 36.40625 11.6875 36.363281 11.699219 36.328125 C 11.691406 36.339844 11.6875 36.351562 11.683594 36.363281 Z M 11.683594 36.363281 " fill-opacity="1" fill-rule="nonzero"/><path fill="#0097b2" d="M 38.789062 128.253906 C 40.160156 129.285156 41.691406 130.128906 43.335938 130.769531 C 43.414062 130.796875 43.496094 130.824219 43.578125 130.847656 C 44.792969 131.308594 46.0625 131.648438 47.363281 131.871094 C 48.519531 132.066406 49.667969 132.164062 50.808594 132.164062 C 60.554688 132.164062 69.285156 125.160156 71.09375 115.269531 C 71.097656 115.25 71.132812 115.035156 71.136719 115.011719 C 71.171875 114.804688 71.1875 114.59375 71.1875 114.386719 C 71.1875 113.585938 70.925781 112.804688 70.453125 112.160156 L 146.1875 112.160156 C 146.433594 112.160156 146.683594 112.132812 146.929688 112.085938 C 147.039062 112.0625 147.144531 112.023438 147.25 111.988281 C 147.378906 111.953125 147.511719 111.921875 147.632812 111.871094 C 147.757812 111.816406 147.875 111.75 147.992188 111.683594 C 148.09375 111.628906 148.191406 111.585938 148.285156 111.523438 C 148.699219 111.246094 149.058594 110.890625 149.332031 110.476562 C 149.394531 110.382812 149.4375 110.285156 149.488281 110.1875 C 149.554688 110.070312 149.628906 109.953125 149.679688 109.824219 C 149.730469 109.699219 149.761719 109.570312 149.800781 109.441406 C 149.832031 109.335938 149.875 109.230469 149.894531 109.121094 C 149.945312 108.875 149.96875 108.628906 149.96875 108.378906 L 149.96875 45.152344 C 149.96875 43.066406 148.277344 41.371094 146.191406 41.371094 L 145.902344 41.371094 C 145.882812 41.371094 145.867188 41.367188 145.847656 41.367188 L 43.097656 41.367188 C 43.078125 41.367188 43.0625 41.371094 43.042969 41.371094 L 42.753906 41.371094 C 40.671875 41.371094 38.976562 43.066406 38.976562 45.152344 L 38.976562 92.945312 C 35.351562 88.5 32.46875 83.550781 30.457031 78.089844 C 30.253906 77.570312 30.054688 77.03125 29.863281 76.410156 C 28.140625 71.214844 27.273438 65.84375 27.273438 60.363281 C 27.273438 59.902344 27.277344 59.441406 27.289062 58.976562 L 29.394531 59.335938 C 31.457031 59.691406 33.402344 58.304688 33.75 56.25 L 38.710938 27.179688 C 38.710938 27.175781 38.710938 27.171875 38.710938 27.167969 L 38.75 26.949219 C 39.019531 25.332031 38.199219 23.742188 36.746094 22.988281 C 36.589844 22.90625 36.433594 22.839844 36.273438 22.785156 C 33.753906 20.996094 30.851562 19.785156 27.808594 19.265625 C 18.839844 17.734375 10.066406 22.136719 5.964844 30.21875 C 5.933594 30.277344 5.828125 30.507812 5.804688 30.570312 C 5.777344 30.628906 5.710938 30.796875 5.6875 30.855469 L 5.667969 30.90625 C 5.144531 31.988281 4.761719 33.003906 4.507812 34.007812 C 4.503906 34.015625 4.5 34.027344 4.5 34.035156 C 4.496094 34.046875 4.492188 34.058594 4.484375 34.070312 C 3.035156 38.210938 1.921875 42.535156 1.171875 46.921875 C 0.40625 51.417969 0.0273438 55.917969 0.0273438 60.386719 C 0.0234375 76.898438 5.199219 92.941406 15.109375 106.621094 C 21.503906 115.445312 29.472656 122.722656 38.789062 128.253906 Z M 46.535156 52.78125 L 71.933594 73.316406 L 50.46875 94.78125 L 48.128906 92.765625 C 47.691406 92.367188 47.136719 92.101562 46.535156 91.945312 Z M 142.410156 99.261719 L 116.710938 73.558594 L 142.410156 52.78125 Z M 135.152344 48.929688 L 94.472656 81.824219 L 53.789062 48.929688 Z M 77.839844 78.09375 L 92.097656 89.617188 C 92.789062 90.175781 93.632812 90.460938 94.472656 90.460938 C 95.3125 90.460938 96.15625 90.179688 96.847656 89.617188 L 110.800781 78.335938 L 137.066406 104.601562 L 61.847656 104.601562 L 56.203125 99.730469 Z M 8.617188 48.191406 C 9.285156 44.28125 10.273438 40.425781 11.554688 36.738281 C 11.59375 36.640625 11.621094 36.542969 11.652344 36.449219 C 11.648438 36.460938 11.644531 36.472656 11.640625 36.484375 C 11.644531 36.472656 11.648438 36.460938 11.652344 36.445312 C 11.660156 36.417969 11.671875 36.390625 11.683594 36.363281 C 11.699219 36.316406 11.71875 36.273438 11.730469 36.226562 L 12.757812 33.519531 C 15.382812 28.484375 20.90625 25.75 26.535156 26.710938 C 28.054688 26.972656 29.523438 27.503906 30.859375 28.277344 L 26.9375 51.253906 L 24.445312 50.828125 C 23.433594 50.65625 22.398438 50.902344 21.570312 51.507812 C 20.742188 52.117188 20.199219 53.035156 20.0625 54.050781 C 19.96875 54.746094 19.902344 55.441406 19.867188 56.089844 C 19.761719 57.523438 19.710938 58.957031 19.710938 60.382812 C 19.710938 66.640625 20.703125 72.804688 22.660156 78.699219 C 22.875 79.410156 23.140625 80.132812 23.386719 80.765625 C 26.304688 88.683594 30.792969 95.777344 36.730469 101.84375 C 36.886719 102.007812 37.058594 102.15625 37.246094 102.285156 L 37.75 102.644531 C 39.058594 103.570312 40.8125 103.570312 42.121094 102.644531 L 45.355469 100.351562 L 63.183594 115.738281 C 61.164062 121.703125 55.003906 125.515625 48.632812 124.421875 C 47.792969 124.277344 46.976562 124.058594 46.203125 123.765625 C 45.097656 123.175781 44.011719 122.574219 42.933594 121.9375 C 42.929688 121.9375 42.925781 121.933594 42.921875 121.929688 C 42.859375 121.890625 42.796875 121.847656 42.730469 121.808594 C 34.269531 116.804688 27.03125 110.199219 21.222656 102.1875 C 12.257812 89.816406 7.578125 75.304688 7.578125 60.371094 C 7.582031 56.328125 7.925781 52.257812 8.617188 48.191406 Z M 8.617188 48.191406 " fill-opacity="1" fill-rule="nonzero"/></svg>