<svg xmlns="http://www.w3.org/2000/svg" viewBox="0 0 150 150" width="200" height="200" preserveAspectRatio="xMidYMid meet" aria-hidden="true" focusable="false">
  <path fill="#ffffff" d="M 136.972656 7.132812 L 144.972656 94.855469 C 145.289062 98.285156 142.765625 101.324219 139.339844 101.652344 C 135.914062 101.976562 132.882812 99.464844 132.574219 96.042969 L 125.9375 23.296875 L 24.03125 146.265625 C 21.832031 148.914062 17.90625 149.292969 15.261719 147.101562 C 12.621094 144.914062 12.253906 140.984375 14.460938 138.328125 L 116.378906 15.359375 L 43.648438 22.308594 C 40.222656 22.632812 37.195312 20.121094 36.886719 16.699219 C 36.730469 14.988281 37.277344 13.367188 38.296875 12.140625 C 39.316406 10.914062 40.800781 10.070312 42.515625 9.910156 L 130.203125 1.53125 C 133.636719 1.195312 136.660156 3.703125 136.972656 7.132812 Z M 136.972656 7.132812 " fill-opacity="1" fill-rule="nonzero"/>
</svg>
