<svg xmlns="http://www.w3.org/2000/svg" xmlns:xlink="http://www.w3.org/1999/xlink" width="200" zoomAndPan="magnify" viewBox="0 0 150 149.999998" height="200" preserveAspectRatio="xMidYMid meet" version="1.0"><defs><clipPath id="e8be8a5606"><path d="M 0 0 L 150 0 L 150 149.25 L 0 149.25 Z M 0 0 " clip-rule="nonzero"/></clipPath></defs><g clip-path="url(#e8be8a5606)"><path fill="#ffffff" d="M 150.015625 74.90625 C 150.015625 33.535156 116.433594 0 75.011719 0 C 33.589844 0 0.0078125 33.535156 0.0078125 74.90625 C 0.0078125 110.035156 24.222656 139.515625 56.890625 147.609375 L 56.890625 97.800781 L 41.421875 97.800781 L 41.421875 74.90625 L 56.890625 74.90625 L 56.890625 65.042969 C 56.890625 39.550781 68.441406 27.730469 93.507812 27.730469 C 98.257812 27.730469 106.457031 28.660156 109.8125 29.59375 L 109.8125 50.339844 C 108.039062 50.152344 104.964844 50.058594 101.148438 50.058594 C 88.847656 50.058594 84.09375 54.710938 84.09375 66.804688 L 84.09375 74.902344 L 108.59375 74.902344 L 104.386719 97.792969 L 84.09375 97.792969 L 84.09375 149.257812 C 121.234375 144.777344 150.015625 113.195312 150.015625 74.902344 Z M 150.015625 74.90625 " fill-opacity="1" fill-rule="nonzero"/></g></svg>