<svg xmlns="http://www.w3.org/2000/svg" xmlns:xlink="http://www.w3.org/1999/xlink" width="200" zoomAndPan="magnify" viewBox="0 0 150 149.999998" height="200" preserveAspectRatio="xMidYMid meet" version="1.0"><defs><clipPath id="83ed61085f"><path d="M 2.183594 0 L 147.683594 0 L 147.683594 150 L 2.183594 150 Z M 2.183594 0 " clip-rule="nonzero"/></clipPath></defs><g clip-path="url(#83ed61085f)"><path fill="#0097b2" d="M 147.78125 38.359375 L 147.691406 37.941406 C 147.601562 37.597656 147.484375 37.261719 147.332031 36.9375 C 147.332031 36.789062 147.183594 36.65625 147.105469 36.503906 C 146.917969 36.195312 146.703125 35.90625 146.464844 35.636719 C 146.464844 35.636719 146.375 35.503906 146.3125 35.441406 L 128.832031 18.003906 C 128.585938 17.761719 128.320312 17.542969 128.03125 17.347656 C 127.742188 17.15625 127.4375 16.992188 127.117188 16.859375 C 126.792969 16.726562 126.464844 16.628906 126.121094 16.558594 C 125.78125 16.492188 125.4375 16.457031 125.089844 16.457031 C 124.742188 16.457031 124.398438 16.492188 124.058594 16.558594 C 123.71875 16.628906 123.386719 16.726562 123.066406 16.859375 C 122.746094 16.992188 122.441406 17.15625 122.152344 17.347656 C 121.863281 17.542969 121.59375 17.761719 121.347656 18.003906 C 121.183594 18.191406 121.027344 18.386719 120.886719 18.589844 C 120.886719 18.589844 120.734375 18.753906 120.675781 18.84375 C 120.410156 19.265625 120.207031 19.714844 120.070312 20.191406 C 119.929688 20.671875 119.859375 21.160156 119.859375 21.65625 C 119.859375 22.15625 119.929688 22.644531 120.070312 23.121094 C 120.207031 23.601562 120.410156 24.050781 120.675781 24.472656 C 120.675781 24.472656 120.675781 24.578125 120.765625 24.636719 C 120.886719 24.804688 121.015625 24.960938 121.15625 25.113281 C 121.246094 25.21875 121.335938 25.355469 121.4375 25.460938 L 129.894531 33.914062 L 113.984375 33.914062 L 113.984375 6.015625 C 113.992188 5.859375 113.992188 5.699219 113.984375 5.539062 C 113.980469 4.820312 113.835938 4.132812 113.550781 3.472656 C 113.359375 2.992188 113.101562 2.554688 112.777344 2.148438 C 112.457031 1.746094 112.082031 1.398438 111.660156 1.105469 C 111.234375 0.808594 110.777344 0.582031 110.285156 0.421875 C 109.796875 0.261719 109.292969 0.175781 108.777344 0.164062 C 108.417969 0.167969 108.066406 0.203125 107.714844 0.269531 L 47.726562 0.269531 C 46.6875 0.273438 45.660156 0.375 44.644531 0.578125 C 43.625 0.78125 42.636719 1.085938 41.679688 1.480469 C 40.722656 1.878906 39.808594 2.367188 38.949219 2.945312 C 38.085938 3.523438 37.289062 4.179688 36.554688 4.914062 C 35.820312 5.648438 35.164062 6.445312 34.589844 7.308594 C 34.011719 8.171875 33.527344 9.082031 33.128906 10.042969 C 32.730469 11 32.429688 11.988281 32.226562 13.007812 C 32.023438 14.023438 31.921875 15.050781 31.921875 16.089844 L 31.921875 53.597656 L 26.996094 48.671875 C 26.5 48.1875 25.929688 47.8125 25.28125 47.554688 C 24.636719 47.296875 23.964844 47.167969 23.269531 47.175781 C 22.574219 47.171875 21.90625 47.296875 21.257812 47.558594 C 20.613281 47.816406 20.042969 48.1875 19.542969 48.671875 L 3.828125 64.433594 C 3.578125 64.675781 3.355469 64.941406 3.160156 65.230469 C 2.964844 65.519531 2.800781 65.824219 2.664062 66.144531 C 2.53125 66.46875 2.429688 66.796875 2.359375 67.140625 C 2.289062 67.480469 2.257812 67.828125 2.257812 68.175781 C 2.257812 68.523438 2.289062 68.867188 2.359375 69.210938 C 2.429688 69.550781 2.53125 69.882812 2.664062 70.203125 C 2.800781 70.527344 2.964844 70.832031 3.160156 71.117188 C 3.355469 71.40625 3.578125 71.671875 3.828125 71.917969 L 31.921875 99.964844 L 31.921875 134.03125 C 31.921875 135.066406 32.027344 136.09375 32.230469 137.109375 C 32.433594 138.128906 32.734375 139.117188 33.132812 140.074219 C 33.53125 141.03125 34.015625 141.941406 34.59375 142.804688 C 35.171875 143.664062 35.824219 144.464844 36.558594 145.195312 C 37.292969 145.929688 38.089844 146.585938 38.953125 147.164062 C 39.816406 147.738281 40.726562 148.226562 41.683594 148.625 C 42.640625 149.023438 43.628906 149.324219 44.644531 149.527344 C 45.660156 149.730469 46.6875 149.832031 47.726562 149.835938 L 132.050781 149.835938 C 133.089844 149.835938 134.117188 149.730469 135.132812 149.527344 C 136.148438 149.324219 137.136719 149.023438 138.097656 148.628906 C 139.054688 148.230469 139.964844 147.742188 140.828125 147.167969 C 141.691406 146.589844 142.488281 145.933594 143.222656 145.203125 C 143.957031 144.46875 144.609375 143.667969 145.1875 142.808594 C 145.765625 141.945312 146.25 141.035156 146.648438 140.074219 C 147.046875 139.117188 147.347656 138.128906 147.550781 137.113281 C 147.753906 136.09375 147.855469 135.066406 147.855469 134.03125 L 147.855469 39.183594 C 147.855469 38.90625 147.828125 38.632812 147.78125 38.359375 Z M 132.050781 139.359375 L 47.726562 139.359375 C 47.378906 139.355469 47.039062 139.324219 46.699219 139.253906 C 46.359375 139.1875 46.03125 139.085938 45.710938 138.953125 C 45.394531 138.820312 45.089844 138.65625 44.804688 138.464844 C 44.515625 138.273438 44.25 138.054688 44.003906 137.8125 C 43.761719 137.566406 43.542969 137.300781 43.351562 137.011719 C 43.160156 136.726562 42.996094 136.421875 42.863281 136.105469 C 42.730469 135.785156 42.628906 135.457031 42.5625 135.117188 C 42.492188 134.777344 42.460938 134.433594 42.457031 134.089844 L 42.457031 110.515625 L 50.898438 118.941406 C 51.839844 119.863281 52.96875 120.363281 54.28125 120.441406 L 68.695312 121.367188 L 69.085938 121.367188 C 69.734375 121.324219 70.355469 121.164062 70.949219 120.886719 C 71.539062 120.613281 72.0625 120.238281 72.515625 119.769531 C 72.96875 119.300781 73.320312 118.765625 73.574219 118.164062 C 73.828125 117.5625 73.96875 116.9375 73.988281 116.285156 C 74.011719 115.632812 73.914062 115 73.699219 114.382812 C 73.484375 113.765625 73.167969 113.207031 72.746094 112.710938 C 72.324219 112.210938 71.828125 111.804688 71.257812 111.492188 C 70.683594 111.179688 70.074219 110.976562 69.429688 110.890625 L 56.992188 110.082031 L 15.082031 68.175781 L 23.359375 59.882812 L 66.765625 103.289062 C 67.011719 103.535156 67.277344 103.753906 67.566406 103.945312 C 67.855469 104.140625 68.160156 104.300781 68.480469 104.433594 C 68.800781 104.566406 69.132812 104.667969 69.472656 104.734375 C 69.816406 104.804688 70.160156 104.835938 70.507812 104.835938 C 70.855469 104.835938 71.199219 104.804688 71.539062 104.734375 C 71.878906 104.667969 72.210938 104.566406 72.53125 104.433594 C 72.851562 104.300781 73.15625 104.140625 73.445312 103.945312 C 73.734375 103.753906 74.003906 103.535156 74.246094 103.289062 C 74.492188 103.042969 74.714844 102.773438 74.90625 102.484375 C 75.097656 102.195312 75.261719 101.890625 75.394531 101.570312 C 75.527344 101.25 75.628906 100.917969 75.695312 100.578125 C 75.765625 100.238281 75.796875 99.894531 75.796875 99.546875 C 75.796875 99.199219 75.765625 98.855469 75.695312 98.511719 C 75.628906 98.171875 75.527344 97.84375 75.394531 97.519531 C 75.261719 97.199219 75.097656 96.894531 74.90625 96.605469 C 74.714844 96.316406 74.492188 96.050781 74.246094 95.804688 L 42.457031 64.132812 L 42.457031 16.089844 C 42.457031 15.742188 42.492188 15.402344 42.558594 15.0625 C 42.625 14.722656 42.726562 14.394531 42.859375 14.074219 C 42.992188 13.753906 43.152344 13.449219 43.347656 13.164062 C 43.539062 12.875 43.757812 12.609375 44 12.363281 C 44.246094 12.121094 44.511719 11.902344 44.800781 11.710938 C 45.085938 11.515625 45.390625 11.355469 45.710938 11.222656 C 46.03125 11.089844 46.359375 10.988281 46.699219 10.921875 C 47.039062 10.855469 47.378906 10.820312 47.726562 10.820312 L 103.507812 10.820312 L 103.507812 39.257812 C 103.507812 39.605469 103.542969 39.945312 103.613281 40.285156 C 103.679688 40.625 103.78125 40.953125 103.914062 41.273438 C 104.046875 41.589844 104.207031 41.894531 104.402344 42.183594 C 104.59375 42.46875 104.8125 42.734375 105.054688 42.980469 C 105.300781 43.222656 105.566406 43.441406 105.851562 43.632812 C 106.140625 43.828125 106.445312 43.988281 106.761719 44.121094 C 107.082031 44.253906 107.410156 44.355469 107.75 44.421875 C 108.089844 44.492188 108.429688 44.527344 108.777344 44.527344 L 137.320312 44.527344 L 137.320312 134.03125 C 137.320312 134.378906 137.289062 134.722656 137.226562 135.066406 C 137.160156 135.40625 137.0625 135.738281 136.929688 136.0625 C 136.800781 136.382812 136.640625 136.691406 136.445312 136.980469 C 136.253906 137.273438 136.039062 137.542969 135.792969 137.789062 C 135.546875 138.035156 135.28125 138.257812 134.992188 138.453125 C 134.703125 138.648438 134.398438 138.8125 134.078125 138.949219 C 133.757812 139.082031 133.425781 139.183594 133.085938 139.253906 C 132.742188 139.320312 132.398438 139.355469 132.050781 139.359375 Z M 132.050781 139.359375 " fill-opacity="1" fill-rule="nonzero"/></g><path fill="#0097b2" d="M 123.773438 58.355469 L 85.683594 58.355469 C 85.046875 58.441406 84.445312 58.632812 83.882812 58.933594 C 83.316406 59.238281 82.820312 59.628906 82.398438 60.109375 C 81.976562 60.59375 81.652344 61.132812 81.425781 61.734375 C 81.199219 62.332031 81.085938 62.953125 81.085938 63.59375 C 81.085938 64.234375 81.199219 64.855469 81.425781 65.457031 C 81.652344 66.058594 81.976562 66.597656 82.398438 67.078125 C 82.820312 67.5625 83.316406 67.953125 83.882812 68.253906 C 84.445312 68.558594 85.046875 68.75 85.683594 68.832031 L 123.773438 68.832031 C 124.410156 68.75 125.011719 68.558594 125.574219 68.253906 C 126.140625 67.953125 126.636719 67.5625 127.058594 67.078125 C 127.480469 66.597656 127.804688 66.058594 128.03125 65.457031 C 128.257812 64.855469 128.371094 64.234375 128.371094 63.59375 C 128.371094 62.953125 128.257812 62.332031 128.03125 61.734375 C 127.804688 61.132812 127.480469 60.59375 127.058594 60.109375 C 126.636719 59.628906 126.140625 59.238281 125.574219 58.933594 C 125.011719 58.632812 124.410156 58.441406 123.773438 58.355469 Z M 123.773438 58.355469 " fill-opacity="1" fill-rule="nonzero"/><path fill="#0097b2" d="M 123.773438 82.378906 L 85.683594 82.378906 C 85.035156 82.449219 84.421875 82.628906 83.84375 82.925781 C 83.265625 83.222656 82.757812 83.613281 82.324219 84.097656 C 81.890625 84.578125 81.558594 85.125 81.324219 85.730469 C 81.089844 86.339844 80.976562 86.96875 80.976562 87.617188 C 80.976562 88.265625 81.089844 88.894531 81.324219 89.503906 C 81.558594 90.109375 81.890625 90.65625 82.324219 91.136719 C 82.757812 91.621094 83.265625 92.011719 83.84375 92.308594 C 84.421875 92.605469 85.035156 92.785156 85.683594 92.855469 L 123.773438 92.855469 C 124.421875 92.785156 125.03125 92.605469 125.613281 92.308594 C 126.191406 92.011719 126.695312 91.621094 127.132812 91.136719 C 127.566406 90.65625 127.898438 90.109375 128.132812 89.503906 C 128.363281 88.894531 128.480469 88.265625 128.480469 87.617188 C 128.480469 86.96875 128.363281 86.339844 128.132812 85.730469 C 127.898438 85.125 127.566406 84.578125 127.132812 84.097656 C 126.695312 83.613281 126.191406 83.222656 125.613281 82.925781 C 125.03125 82.628906 124.421875 82.449219 123.773438 82.378906 Z M 123.773438 82.378906 " fill-opacity="1" fill-rule="nonzero"/><path fill="#0097b2" d="M 123.773438 106.429688 L 85.683594 106.429688 C 85.046875 106.515625 84.445312 106.707031 83.882812 107.007812 C 83.316406 107.3125 82.820312 107.703125 82.398438 108.183594 C 81.976562 108.667969 81.652344 109.207031 81.425781 109.808594 C 81.199219 110.40625 81.085938 111.027344 81.085938 111.667969 C 81.085938 112.308594 81.199219 112.929688 81.425781 113.53125 C 81.652344 114.128906 81.976562 114.671875 82.398438 115.152344 C 82.820312 115.636719 83.316406 116.027344 83.882812 116.328125 C 84.445312 116.632812 85.046875 116.824219 85.683594 116.90625 L 123.773438 116.90625 C 124.410156 116.824219 125.011719 116.632812 125.574219 116.328125 C 126.140625 116.027344 126.636719 115.636719 127.058594 115.152344 C 127.480469 114.671875 127.804688 114.128906 128.03125 113.53125 C 128.257812 112.929688 128.371094 112.308594 128.371094 111.667969 C 128.371094 111.027344 128.257812 110.40625 128.03125 109.808594 C 127.804688 109.207031 127.480469 108.667969 127.058594 108.183594 C 126.636719 107.703125 126.140625 107.3125 125.574219 107.007812 C 125.011719 106.707031 124.410156 106.515625 123.773438 106.429688 Z M 123.773438 106.429688 " fill-opacity="1" fill-rule="nonzero"/></svg>