<svg xmlns="http://www.w3.org/2000/svg" xmlns:xlink="http://www.w3.org/1999/xlink" width="200" zoomAndPan="magnify" viewBox="0 0 150 149.999998" height="200" preserveAspectRatio="xMidYMid meet" version="1.0"><path fill="#ffffff" d="M 127.476562 128.078125 L 105.3125 128.078125 L 105.3125 93.234375 C 105.3125 84.925781 105.164062 74.226562 93.785156 74.226562 C 82.40625 74.226562 80.472656 83.285156 80.472656 92.628906 L 80.472656 128.078125 L 58.304688 128.078125 L 58.304688 56.417969 L 79.589844 56.417969 L 79.589844 66.210938 L 79.886719 66.210938 C 84.226562 58.761719 92.296875 54.316406 100.878906 54.636719 C 123.351562 54.636719 127.492188 69.46875 127.492188 88.765625 L 127.492188 128.078125 Z M 33.285156 46.625 C 26.179688 46.625 20.417969 40.847656 20.417969 33.71875 C 20.417969 26.585938 26.171875 20.800781 33.277344 20.800781 C 40.378906 20.800781 46.144531 26.582031 46.144531 33.710938 C 46.144531 40.839844 40.386719 46.625 33.285156 46.625 M 44.375 128.078125 L 22.179688 128.078125 L 22.179688 56.417969 L 44.375 56.417969 Z M 138.53125 0.132812 L 11.039062 0.132812 C 5.015625 0.0703125 0.0703125 4.914062 0 10.960938 L 0 139.457031 C 0.0703125 145.511719 5.007812 150.355469 11.039062 150.289062 L 138.53125 150.289062 C 144.570312 150.367188 149.53125 145.515625 149.613281 139.457031 L 149.613281 10.953125 C 149.53125 4.890625 144.570312 0.046875 138.53125 0.125 " fill-opacity="1" fill-rule="nonzero"/></svg>