<svg xmlns="http://www.w3.org/2000/svg" xmlns:xlink="http://www.w3.org/1999/xlink" width="500" zoomAndPan="magnify" viewBox="0 0 375 374.999991" height="500" preserveAspectRatio="xMidYMid meet" version="1.0"><defs><clipPath id="ae202f09fd"><path d="M 0 50 L 357 50 L 357 299.875 L 0 299.875 Z M 0 50 " clip-rule="nonzero"/></clipPath><clipPath id="af3bb38c0c"><path d="M 17.578125 75.113281 L 374 75.113281 L 374 325 L 17.578125 325 Z M 17.578125 75.113281 " clip-rule="nonzero"/></clipPath><clipPath id="91da5c140b"><path d="M 302 75.113281 L 375 75.113281 L 375 148 L 302 148 Z M 302 75.113281 " clip-rule="nonzero"/></clipPath></defs><g clip-path="url(#ae202f09fd)"><path fill="#ffffff" d="M 327.109375 156.972656 C 341.3125 159.742188 355.28125 171.9375 356.359375 190.285156 C 357.316406 206.515625 347.488281 220.949219 332.496094 226.285156 C 328.597656 227.671875 324.582031 228.285156 320.433594 228.34375 C 314.515625 228.433594 308.824219 229.679688 303.671875 232.683594 C 292.6875 239.113281 286.484375 248.578125 285.613281 261.414062 C 285.378906 264.863281 285.203125 268.378906 284.421875 271.726562 C 280.320312 289.222656 264.480469 299.832031 248.382812 299.339844 C 230.386719 298.792969 215.246094 284.675781 213.777344 266.722656 C 213.601562 264.519531 213.460938 262.316406 213.292969 260.121094 C 211.992188 243.214844 198.144531 230.730469 184.3125 228.945312 C 182.175781 228.667969 180.027344 228.472656 177.878906 228.351562 C 172.007812 228.453125 166.363281 229.710938 161.257812 232.695312 C 150.273438 239.121094 144.070312 248.589844 143.195312 261.421875 C 142.964844 264.875 142.789062 268.390625 142.007812 271.738281 C 137.894531 289.222656 122.058594 299.832031 105.957031 299.339844 C 87.960938 298.792969 72.820312 284.675781 71.351562 266.722656 C 71.175781 264.519531 71.035156 262.316406 70.867188 260.121094 C 69.566406 243.214844 55.71875 230.730469 41.886719 228.945312 C 39.394531 228.621094 36.875 228.40625 34.363281 228.285156 C 18.738281 227.5625 5.394531 216.78125 1.347656 201.640625 C 0.316406 197.78125 0.167969 193.855469 0.167969 189.914062 C 0.167969 175.460938 0.0664062 122.757812 -0.0078125 86.335938 C -0.046875 66.339844 16.238281 50.148438 36.242188 50.316406 C 55.949219 50.472656 71.863281 66.480469 71.902344 86.1875 C 71.976562 122.375 72.097656 175.136719 72.132812 189.550781 C 72.132812 192.851562 72.1875 196.226562 72.839844 199.4375 C 76.058594 215.527344 90.210938 227.152344 106.515625 227.328125 C 123.257812 227.503906 137.578125 216.316406 141.1875 200.089844 C 141.800781 197.335938 141.867188 194.460938 142.171875 191.644531 C 142.351562 189.96875 142.386719 188.265625 142.601562 186.601562 C 142.582031 168.652344 142.5 120.375 142.425781 86.328125 C 142.386719 66.332031 158.671875 50.140625 178.675781 50.308594 C 198.382812 50.464844 214.296875 66.46875 214.335938 86.179688 C 214.410156 122.367188 214.53125 175.125 214.566406 189.542969 C 214.566406 192.84375 214.621094 196.21875 215.273438 199.425781 C 218.492188 215.515625 232.648438 227.140625 248.949219 227.320312 C 265.691406 227.496094 280.011719 216.308594 283.621094 200.078125 C 284.234375 197.324219 284.300781 194.453125 284.609375 191.632812 C 284.839844 189.4375 284.832031 187.199219 285.304688 185.058594 C 290.132812 163.0625 310.957031 153.800781 327.136719 156.960938 Z M 327.109375 156.972656 " fill-opacity="1" fill-rule="nonzero"/></g><path fill="#ffffff" d="M 321.363281 122.261719 C 301.777344 122.679688 284.8125 107.066406 284.617188 86.902344 C 284.140625 67.679688 299.265625 50.882812 319.660156 50.316406 C 339.601562 49.765625 356.144531 65.570312 356.425781 85.675781 C 356.730469 107.511719 339.152344 121.871094 321.351562 122.261719 Z M 321.363281 122.261719 " fill-opacity="1" fill-rule="nonzero"/><g clip-path="url(#af3bb38c0c)"><path fill="#0097b2" d="M 344.6875 182.398438 C 358.890625 185.167969 372.859375 197.359375 373.9375 215.710938 C 374.894531 231.9375 365.066406 246.375 350.074219 251.710938 C 346.175781 253.097656 342.160156 253.710938 338.011719 253.765625 C 332.097656 253.859375 326.402344 255.105469 321.25 258.109375 C 310.269531 264.535156 304.066406 274.003906 303.191406 286.839844 C 302.957031 290.289062 302.78125 293.804688 302 297.152344 C 297.898438 314.648438 282.058594 325.257812 265.960938 324.765625 C 247.964844 324.21875 232.824219 310.097656 231.355469 292.148438 C 231.179688 289.945312 231.039062 287.742188 230.871094 285.546875 C 229.570312 268.636719 215.722656 256.15625 201.890625 254.371094 C 199.753906 254.09375 197.605469 253.898438 195.457031 253.777344 C 189.585938 253.878906 183.941406 255.132812 178.835938 258.121094 C 167.851562 264.546875 161.648438 274.015625 160.773438 286.847656 C 160.542969 290.296875 160.367188 293.8125 159.585938 297.164062 C 155.472656 314.648438 139.636719 325.257812 123.535156 324.765625 C 105.539062 324.21875 90.398438 310.097656 88.929688 292.148438 C 88.753906 289.945312 88.613281 287.742188 88.445312 285.546875 C 87.144531 268.636719 73.296875 256.15625 59.46875 254.371094 C 56.976562 254.046875 54.453125 253.832031 51.941406 253.710938 C 36.320312 252.984375 22.972656 242.207031 18.925781 227.066406 C 17.894531 223.207031 17.746094 219.28125 17.746094 215.339844 C 17.746094 200.886719 17.644531 148.179688 17.570312 111.761719 C 17.53125 91.765625 33.816406 75.574219 53.820312 75.742188 C 73.527344 75.898438 89.441406 91.90625 89.480469 111.613281 C 89.554688 147.800781 89.675781 200.558594 89.710938 214.976562 C 89.710938 218.277344 89.765625 221.652344 90.417969 224.863281 C 93.636719 240.953125 107.792969 252.578125 124.09375 252.753906 C 140.835938 252.929688 155.15625 241.742188 158.765625 225.511719 C 159.378906 222.761719 159.445312 219.886719 159.753906 217.066406 C 159.929688 215.394531 159.964844 213.691406 160.179688 212.027344 C 160.160156 194.078125 160.078125 145.800781 160.003906 111.75 C 159.964844 91.757812 176.25 75.5625 196.257812 75.730469 C 215.964844 75.890625 231.875 91.894531 231.914062 111.601562 C 231.988281 147.789062 232.109375 200.550781 232.144531 214.964844 C 232.144531 218.269531 232.203125 221.644531 232.851562 224.851562 C 236.070312 240.941406 250.226562 252.566406 266.527344 252.746094 C 283.269531 252.921875 297.59375 241.734375 301.199219 225.503906 C 301.8125 222.75 301.878906 219.875 302.1875 217.058594 C 302.417969 214.863281 302.410156 212.621094 302.882812 210.484375 C 307.710938 188.488281 328.535156 179.226562 344.714844 182.386719 Z M 344.6875 182.398438 " fill-opacity="1" fill-rule="nonzero"/></g><g clip-path="url(#91da5c140b)"><path fill="#0097b2" d="M 338.941406 147.6875 C 319.355469 148.105469 302.390625 132.492188 302.195312 112.328125 C 301.722656 93.105469 316.84375 76.308594 337.238281 75.742188 C 357.179688 75.191406 373.722656 90.992188 374.003906 111.101562 C 374.308594 132.9375 356.730469 147.296875 338.929688 147.6875 Z M 338.941406 147.6875 " fill-opacity="1" fill-rule="nonzero"/></g></svg>