<svg xmlns="http://www.w3.org/2000/svg" xmlns:xlink="http://www.w3.org/1999/xlink" width="200" zoomAndPan="magnify" viewBox="0 0 150 149.999998" height="200" preserveAspectRatio="xMidYMid meet" version="1.0"><defs><clipPath id="f5655388e9"><path d="M 0 18.832031 L 150 18.832031 L 150 131.332031 L 0 131.332031 Z M 0 18.832031 " clip-rule="nonzero"/></clipPath></defs><g clip-path="url(#f5655388e9)"><path fill="#0097b2" d="M 138.230469 131.144531 L 11.625 131.144531 C 10.664062 131.019531 9.964844 130.914062 9.523438 130.820312 C 5.46875 129.96875 2.101562 126.792969 0.75 123 C 0.347656 121.867188 0.195312 120.679688 0 119.476562 L 0 30.320312 C 0.210938 29.75 0.195312 29.105469 0.3125 28.617188 C 0.472656 27.949219 0.636719 27.207031 0.902344 26.589844 C 2.613281 22.589844 5.597656 20.117188 9.855469 19.171875 C 10.246094 19.085938 10.640625 19.035156 11.035156 19.015625 C 11.5625 18.996094 12.078125 18.871094 12.613281 18.871094 C 53.859375 18.851562 95.546875 18.851562 137.675781 18.871094 C 137.996094 18.871094 138.316406 18.894531 138.632812 18.941406 C 138.949219 18.988281 139.265625 19.03125 139.585938 19.074219 C 140.6875 19.21875 141.664062 19.480469 142.507812 19.859375 C 146.539062 21.660156 149.515625 25.449219 149.8125 29.957031 C 149.859375 30.691406 149.933594 31.402344 149.929688 32.125 C 149.761719 54.511719 149.855469 76.917969 149.855469 100.886719 C 149.855469 106.019531 149.992188 111.417969 149.917969 116.828125 C 149.898438 118.492188 149.859375 119.621094 149.804688 120.210938 C 149.46875 123.753906 147.796875 126.640625 144.789062 128.875 C 143.355469 129.9375 141.75 130.609375 139.980469 130.898438 C 139.398438 130.992188 138.816406 131.074219 138.230469 131.144531 Z M 72.734375 86.363281 C 74.640625 87.085938 76.875 86.617188 78.355469 85.242188 C 91.421875 73.074219 104.414062 61.03125 117.332031 49.113281 C 124.792969 42.226562 132.1875 35.378906 139.523438 28.566406 C 139.636719 28.460938 139.636719 28.351562 139.53125 28.238281 C 139.367188 28.0625 139.117188 27.976562 138.789062 27.976562 C 96.003906 27.960938 53.738281 27.953125 11.988281 27.953125 C 11.171875 27.953125 10.703125 28.140625 10.148438 28.671875 C 10.070312 28.75 10.070312 28.824219 10.152344 28.898438 C 10.601562 29.289062 11.046875 29.691406 11.496094 30.097656 C 16.472656 34.648438 22.058594 39.808594 28.25 45.585938 C 41.539062 57.984375 54.433594 69.96875 66.941406 81.542969 C 68.050781 82.570312 69.191406 83.621094 70.359375 84.699219 C 71.296875 85.566406 72.089844 86.121094 72.734375 86.363281 Z M 140.601562 40.453125 C 140.601562 40.421875 140.585938 40.398438 140.554688 40.375 C 140.523438 40.347656 140.492188 40.347656 140.460938 40.371094 C 139.433594 41.164062 138.605469 42.101562 137.625 43.011719 C 127.011719 52.871094 116.125 63.027344 104.964844 73.480469 C 104.855469 73.582031 104.746094 73.671875 104.625 73.753906 C 104.457031 73.867188 104.449219 73.992188 104.605469 74.125 C 104.976562 74.4375 105.304688 74.730469 105.59375 75 C 111.628906 80.652344 118.121094 86.773438 125.078125 93.363281 C 126.425781 94.636719 127.605469 95.773438 128.625 96.773438 C 129.730469 97.859375 130.90625 98.886719 132.007812 99.96875 C 132.871094 100.816406 133.71875 101.617188 134.542969 102.367188 C 135.917969 103.613281 137.175781 104.925781 138.558594 106.175781 C 139.214844 106.765625 139.847656 107.378906 140.460938 108.019531 C 140.488281 108.046875 140.515625 108.058594 140.554688 108.050781 C 140.609375 108.039062 140.636719 108.011719 140.636719 107.972656 C 140.640625 85.503906 140.636719 63.042969 140.632812 40.589844 C 140.632812 40.5625 140.628906 40.535156 140.613281 40.507812 C 140.605469 40.492188 140.601562 40.472656 140.601562 40.453125 Z M 9.480469 108.050781 C 10.410156 107.125 11.414062 106.144531 12.5 105.113281 C 22.207031 95.882812 31.792969 86.726562 41.261719 77.648438 C 42.339844 76.613281 43.472656 75.542969 44.660156 74.4375 C 44.894531 74.222656 44.890625 74.007812 44.65625 73.796875 C 44.199219 73.382812 43.765625 72.984375 43.355469 72.597656 C 31.914062 61.886719 21.144531 51.855469 11.042969 42.5 C 10.4375 41.9375 9.859375 41.398438 9.308594 40.878906 C 9.28125 40.855469 9.269531 40.855469 9.269531 40.878906 L 9.226562 107.945312 C 9.226562 108.1875 9.3125 108.222656 9.480469 108.050781 Z M 75.433594 96.074219 C 70.886719 96.28125 67.21875 94.632812 63.894531 91.5 C 60.863281 88.652344 57.128906 85.152344 52.683594 81 C 52.496094 80.824219 52.292969 80.65625 52.078125 80.492188 C 51.929688 80.382812 51.789062 80.390625 51.65625 80.515625 C 51.097656 81.019531 50.570312 81.589844 50.027344 82.109375 C 38.433594 93.183594 26.945312 104.179688 15.574219 115.097656 C 14.136719 116.480469 12.855469 117.683594 11.730469 118.710938 C 11.097656 119.292969 10.496094 119.863281 9.9375 120.429688 C 9.785156 120.582031 9.78125 120.734375 9.929688 120.890625 C 10.828125 121.851562 11.621094 121.785156 13.074219 121.785156 C 54.652344 121.785156 96.230469 121.785156 137.804688 121.785156 C 138.832031 121.785156 139.398438 121.683594 139.945312 120.851562 C 140.074219 120.660156 140.050781 120.484375 139.886719 120.328125 C 126.488281 107.652344 113.09375 94.964844 99.707031 82.261719 C 98.960938 81.554688 98.328125 80.914062 97.808594 80.347656 C 97.742188 80.273438 97.65625 80.230469 97.554688 80.226562 C 97.453125 80.222656 97.367188 80.257812 97.289062 80.324219 C 93.515625 83.816406 89.769531 87.355469 86.027344 90.871094 C 84.589844 92.222656 83.480469 93.152344 82.695312 93.660156 C 80.378906 95.152344 77.957031 95.957031 75.433594 96.074219 Z M 75.433594 96.074219 " fill-opacity="1" fill-rule="nonzero"/></g></svg>