<svg xmlns="http://www.w3.org/2000/svg" xmlns:xlink="http://www.w3.org/1999/xlink" width="200" zoomAndPan="magnify" viewBox="0 0 150 149.999998" height="200" preserveAspectRatio="xMidYMid meet" version="1.0"><path fill="#0097b2" d="M 148.144531 110.113281 C 149.238281 113.042969 149.878906 116.183594 149.976562 119.472656 C 150 119.785156 150 120.097656 150 120.421875 C 150 136.753906 136.753906 150 120.421875 150 C 53.914062 150 0 96.085938 0 29.574219 C 0 13.246094 13.246094 0 29.574219 0 C 29.902344 0 30.214844 0 30.527344 0.0234375 C 33.816406 0.121094 36.96875 0.757812 39.894531 1.855469 L 51 49.929688 C 51 49.953125 50.988281 49.964844 50.964844 49.976562 L 30.597656 59.128906 L 30.539062 59.152344 C 39.882812 87.609375 62.390625 110.113281 90.847656 119.460938 L 90.871094 119.398438 L 100.035156 99.023438 L 148.144531 110.113281 " fill-opacity="1" fill-rule="nonzero"/></svg>