<svg xmlns="http://www.w3.org/2000/svg" xmlns:xlink="http://www.w3.org/1999/xlink" width="200" zoomAndPan="magnify" viewBox="0 0 150 149.999998" height="200" preserveAspectRatio="xMidYMid meet" version="1.0"><defs><clipPath id="c2e10be266"><path d="M 64 49 L 150 49 L 150 112.144531 L 64 112.144531 Z M 64 49 " clip-rule="nonzero"/></clipPath><clipPath id="e4352ad85f"><path d="M 64 37.894531 L 127 37.894531 L 127 89 L 64 89 Z M 64 37.894531 " clip-rule="nonzero"/></clipPath></defs><g clip-path="url(#c2e10be266)"><path fill="#0097b2" d="M 66.960938 63.417969 C 66.238281 64.804688 65.554688 66.46875 65.144531 67.847656 C 64.96875 68.4375 64.765625 69.195312 64.6875 69.5625 C 64.207031 71.746094 64.023438 73.523438 64.046875 75.710938 C 64.054688 76.539062 64.160156 77.910156 64.285156 78.800781 C 64.523438 80.496094 65.003906 82.449219 65.566406 83.988281 C 66.492188 86.523438 67.722656 88.785156 69.296875 90.851562 C 71.070312 93.175781 73.117188 95.078125 75.667969 96.761719 C 76.125 97.066406 77.648438 97.9375 78.125 98.175781 C 80.316406 99.246094 82.265625 99.917969 84.511719 100.371094 C 87.453125 100.96875 90.445312 101.039062 93.453125 100.578125 C 95.410156 100.28125 97.558594 99.683594 99.355469 98.933594 C 101.0625 98.226562 102.460938 97.476562 103.96875 96.457031 C 105.613281 95.34375 107.074219 94.09375 108.414062 92.640625 C 109.277344 91.703125 110.136719 90.617188 110.816406 89.597656 L 110.9375 89.414062 L 112.503906 90.316406 L 114.074219 91.21875 L 113.800781 91.695312 C 113.59375 92.058594 113.519531 92.203125 113.492188 92.296875 C 113.371094 92.730469 113.484375 93.214844 113.78125 93.550781 C 113.898438 93.683594 113.90625 93.6875 114.5 94.035156 C 114.828125 94.230469 121.964844 98.339844 130.363281 103.175781 C 143.726562 110.867188 145.648438 111.96875 145.773438 112.011719 C 145.953125 112.070312 146.253906 112.089844 146.433594 112.054688 C 146.601562 112.019531 146.796875 111.9375 146.949219 111.828125 C 147.203125 111.652344 147.152344 111.734375 148.609375 109.179688 L 149.941406 106.851562 L 149.960938 106.703125 C 149.996094 106.476562 149.984375 106.292969 149.925781 106.085938 C 149.863281 105.878906 149.796875 105.746094 149.65625 105.574219 L 149.5625 105.457031 L 146.589844 103.734375 C 144.953125 102.789062 137.777344 98.65625 130.640625 94.554688 L 117.660156 87.09375 L 117.515625 87.0625 C 117.097656 86.984375 116.691406 87.09375 116.363281 87.371094 C 116.238281 87.476562 116.226562 87.492188 115.933594 87.992188 L 115.628906 88.503906 L 115.46875 88.394531 C 115.378906 88.335938 114.675781 87.925781 113.910156 87.484375 L 112.511719 86.679688 L 112.675781 86.335938 C 112.871094 85.945312 113.085938 85.453125 113.335938 84.832031 C 113.511719 84.40625 113.554688 84.285156 113.769531 83.675781 C 114.367188 81.972656 114.8125 80.003906 115.015625 78.121094 C 115.066406 77.667969 115.144531 76.523438 115.15625 76.136719 C 115.164062 75.683594 115.167969 75.539062 115.164062 75.257812 C 115.144531 71.183594 114.15625 67.15625 112.292969 63.546875 C 111.558594 62.125 110.675781 60.75 109.691406 59.492188 C 108.113281 57.484375 106.222656 55.707031 104.132812 54.265625 C 102.976562 53.472656 101.699219 52.742188 100.453125 52.15625 C 95.882812 50.011719 90.757812 49.28125 85.75 50.054688 C 82.707031 50.523438 79.761719 51.535156 77.113281 53.019531 C 74.929688 54.238281 73.09375 55.640625 71.292969 57.460938 C 70.894531 57.863281 70.273438 58.5625 69.84375 59.085938 C 69.558594 59.429688 69.425781 59.601562 69.007812 60.15625 C 68.445312 60.890625 67.453125 62.472656 66.960938 63.417969 Z M 73.9375 64.644531 C 75.085938 62.972656 76.355469 61.609375 77.917969 60.382812 C 79.765625 58.925781 81.851562 57.839844 84.117188 57.152344 C 84.546875 57.023438 84.570312 57.015625 85.042969 56.898438 C 86.195312 56.617188 87.183594 56.464844 88.359375 56.386719 C 91.492188 56.179688 94.605469 56.753906 97.492188 58.082031 C 98.308594 58.453125 99.527344 59.136719 100.183594 59.582031 C 102.09375 60.894531 103.574219 62.304688 104.882812 64.074219 C 107.101562 67.066406 108.40625 70.757812 108.5625 74.488281 C 108.695312 77.707031 108.015625 80.871094 106.574219 83.761719 C 106.375 84.164062 105.699219 85.34375 105.480469 85.667969 C 105.132812 86.191406 104.773438 86.703125 104.527344 87.015625 C 104.457031 87.101562 104.335938 87.25 104.261719 87.34375 C 103.308594 88.539062 101.90625 89.847656 100.574219 90.792969 C 99.792969 91.347656 99.058594 91.789062 98.171875 92.242188 C 93.398438 94.675781 87.753906 94.949219 82.738281 92.984375 C 81.769531 92.605469 81.25 92.351562 80.164062 91.730469 C 79.101562 91.117188 78.695312 90.847656 77.867188 90.203125 C 74.101562 87.257812 71.589844 82.964844 70.855469 78.21875 C 70.554688 76.269531 70.5625 74.277344 70.875 72.316406 C 71.171875 70.484375 71.769531 68.621094 72.582031 66.988281 C 72.683594 66.789062 72.789062 66.578125 72.816406 66.523438 C 72.953125 66.25 73.71875 64.96875 73.9375 64.644531 Z M 73.9375 64.644531 " fill-opacity="1" fill-rule="nonzero"/></g><path fill="#0097b2" d="M 14.195312 54.042969 C 12.757812 54.078125 12.269531 54.117188 11.976562 54.234375 C 11.777344 54.3125 11.34375 54.410156 11.015625 54.460938 C 10.699219 54.503906 10.222656 54.601562 9.972656 54.671875 C 8.902344 54.980469 7.582031 55.414062 7.421875 55.507812 C 7.332031 55.566406 7.011719 55.707031 6.71875 55.832031 C 6.425781 55.949219 6.09375 56.117188 5.96875 56.199219 C 5.851562 56.285156 5.425781 56.566406 5.03125 56.828125 C 3.328125 57.929688 1.6875 59.921875 1.027344 61.683594 C 0.925781 61.960938 0.792969 62.300781 0.726562 62.445312 C 0.667969 62.59375 0.59375 62.855469 0.558594 63.03125 C 0.535156 63.214844 0.433594 63.613281 0.351562 63.941406 C 0.140625 64.761719 0 67.21875 0.109375 68.347656 C 0.25 69.800781 0.34375 70.46875 0.476562 70.804688 C 0.542969 70.988281 0.691406 71.457031 0.808594 71.847656 C 1.128906 72.910156 2.296875 74.765625 3.066406 75.425781 C 3.152344 75.503906 3.433594 75.746094 3.695312 75.960938 C 4.582031 76.730469 6.277344 77.742188 7.296875 78.109375 C 7.597656 78.21875 7.914062 78.351562 8.007812 78.410156 C 8.101562 78.46875 8.324219 78.554688 8.507812 78.605469 C 8.691406 78.644531 9.109375 78.769531 9.429688 78.871094 C 10.699219 79.265625 14.402344 80.125 15.699219 80.335938 C 15.882812 80.359375 16.273438 80.453125 16.578125 80.535156 C 16.878906 80.625 17.539062 80.769531 18.039062 80.871094 C 18.550781 80.96875 19.109375 81.121094 19.292969 81.203125 C 19.476562 81.296875 19.820312 81.402344 20.046875 81.453125 C 20.613281 81.578125 21.894531 82.207031 22.320312 82.574219 C 22.804688 83 23.207031 83.570312 23.480469 84.253906 C 23.699219 84.789062 23.722656 84.933594 23.722656 85.84375 C 23.722656 86.753906 23.699219 86.898438 23.480469 87.449219 C 22.871094 88.960938 21.507812 89.996094 19.503906 90.484375 C 19.34375 90.515625 18.832031 90.617188 18.375 90.707031 C 16.878906 90.984375 13.117188 90.882812 11.351562 90.523438 C 11.035156 90.464844 10.597656 90.382812 10.390625 90.359375 C 10.179688 90.324219 9.773438 90.230469 9.46875 90.148438 C 9.167969 90.054688 8.59375 89.90625 8.175781 89.804688 C 7.765625 89.707031 7.246094 89.53125 7.03125 89.421875 C 6.8125 89.320312 6.578125 89.230469 6.519531 89.230469 C 6.335938 89.230469 5.125 88.828125 5 88.726562 C 4.941406 88.683594 4.65625 88.570312 4.363281 88.46875 C 3.8125 88.292969 3.695312 88.242188 1.972656 87.429688 C 1.328125 87.121094 0.902344 86.972656 0.808594 87.003906 C 0.675781 87.054688 0.667969 87.199219 0.71875 89.003906 C 0.75 90.074219 0.777344 91.960938 0.777344 93.214844 C 0.777344 95.832031 0.742188 95.722656 1.613281 95.964844 C 1.863281 96.035156 2.207031 96.152344 2.363281 96.210938 C 2.523438 96.277344 2.808594 96.367188 2.992188 96.417969 C 3.175781 96.460938 3.609375 96.578125 3.953125 96.675781 C 4.296875 96.769531 4.804688 96.902344 5.082031 96.96875 C 5.359375 97.035156 5.824219 97.164062 6.125 97.253906 C 6.425781 97.347656 6.914062 97.464844 7.214844 97.503906 C 7.515625 97.554688 7.90625 97.628906 8.089844 97.671875 C 8.273438 97.714844 8.558594 97.753906 8.71875 97.753906 C 8.878906 97.753906 9.277344 97.855469 9.597656 97.964844 C 10.023438 98.113281 10.355469 98.171875 10.824219 98.171875 C 11.175781 98.171875 11.929688 98.230469 12.496094 98.308594 C 13.367188 98.425781 14.109375 98.441406 17.246094 98.398438 C 20.5625 98.359375 21.039062 98.332031 21.632812 98.191406 C 22 98.097656 22.527344 98 22.804688 97.972656 C 23.082031 97.941406 23.515625 97.855469 23.765625 97.78125 C 24.015625 97.707031 24.433594 97.597656 24.683594 97.539062 C 25.996094 97.230469 27.921875 96.375 29.15625 95.539062 C 29.976562 94.996094 31.289062 93.683594 31.859375 92.832031 C 32.617188 91.703125 33.460938 89.804688 33.460938 89.21875 C 33.460938 89.113281 33.554688 88.851562 33.65625 88.644531 C 33.761719 88.433594 33.90625 88.09375 33.964844 87.867188 C 34.089844 87.390625 34.191406 87.304688 34.289062 87.582031 C 34.332031 87.699219 34.398438 89.90625 34.433594 92.488281 C 34.484375 96.25 34.515625 97.203125 34.609375 97.296875 C 34.691406 97.386719 35.21875 97.40625 37.332031 97.371094 C 38.761719 97.355469 42.648438 97.296875 45.960938 97.253906 C 49.269531 97.203125 53.050781 97.152344 54.363281 97.128906 C 55.675781 97.105469 58.53125 97.0625 60.722656 97.035156 C 62.914062 97.003906 64.753906 96.953125 64.8125 96.917969 C 64.894531 96.871094 64.894531 96.058594 64.828125 93.039062 C 64.777344 90.941406 64.710938 89.1875 64.675781 89.136719 C 64.628906 89.054688 62.605469 89.0625 56.160156 89.1875 C 55.015625 89.210938 52.15625 89.253906 49.804688 89.277344 C 45.550781 89.328125 45.542969 89.328125 45.316406 89.152344 C 45.175781 89.035156 45.082031 88.871094 45.050781 88.660156 C 45.023438 88.492188 45 86.292969 44.980469 83.777344 L 44.957031 79.207031 L 45.148438 79.011719 L 45.339844 78.820312 L 51.335938 78.753906 C 54.628906 78.722656 58.550781 78.664062 60.046875 78.628906 L 62.761719 78.570312 L 62.789062 74.734375 C 62.804688 71.816406 62.78125 70.871094 62.703125 70.777344 C 62.621094 70.671875 62.378906 70.664062 61.214844 70.703125 C 60.457031 70.730469 57.621094 70.769531 54.90625 70.796875 C 52.195312 70.820312 48.960938 70.863281 47.714844 70.886719 C 45.375 70.9375 45.089844 70.914062 44.921875 70.605469 C 44.808594 70.386719 44.757812 69.015625 44.738281 65.578125 L 44.722656 62.703125 L 44.949219 62.503906 C 45.15625 62.328125 45.25 62.3125 46.195312 62.3125 C 46.753906 62.3125 47.984375 62.285156 48.929688 62.269531 C 49.871094 62.246094 53.535156 62.1875 57.078125 62.144531 C 62.277344 62.078125 63.53125 62.035156 63.625 61.941406 C 63.714844 61.851562 63.722656 61.164062 63.675781 58.015625 C 63.625 54.628906 63.597656 54.183594 63.480469 54.136719 C 63.40625 54.101562 62.160156 54.09375 60.714844 54.128906 C 59.269531 54.152344 54.5625 54.226562 50.265625 54.277344 C 34.566406 54.46875 34.148438 54.488281 34.015625 54.621094 C 33.914062 54.730469 33.90625 55.382812 33.964844 59.386719 C 34.039062 64.351562 34.230469 78.496094 34.238281 79.949219 C 34.257812 81.320312 34.082031 81.863281 33.871094 81.09375 C 33.820312 80.902344 33.714844 80.667969 33.628906 80.578125 C 33.539062 80.484375 33.363281 80.066406 33.21875 79.65625 C 32.476562 77.375 30.828125 75.609375 28.15625 74.238281 C 27.652344 73.980469 26.976562 73.671875 26.648438 73.546875 C 26.332031 73.429688 26.015625 73.296875 25.957031 73.246094 C 25.898438 73.195312 25.644531 73.101562 25.394531 73.035156 C 25.144531 72.976562 24.734375 72.878906 24.492188 72.8125 C 24.25 72.753906 23.941406 72.644531 23.808594 72.578125 C 23.664062 72.5 23.3125 72.402344 23.011719 72.351562 C 21.894531 72.167969 21.066406 72.007812 20.648438 71.890625 C 20.40625 71.824219 19.988281 71.742188 19.710938 71.714844 C 19.433594 71.683594 19 71.605469 18.75 71.546875 C 18.5 71.488281 18.121094 71.414062 17.914062 71.390625 C 17.246094 71.296875 14.730469 70.753906 13.777344 70.496094 C 13.222656 70.34375 12.722656 70.144531 11.769531 69.710938 C 11.210938 69.449219 10.433594 68.730469 10.179688 68.246094 C 10.074219 68.027344 9.929688 67.535156 9.863281 67.152344 C 9.761719 66.558594 9.761719 66.332031 9.847656 65.695312 C 9.972656 64.808594 10.121094 64.425781 10.558594 63.847656 C 11.335938 62.8125 12.921875 62.078125 14.90625 61.835938 C 17.597656 61.507812 18.347656 61.484375 19.542969 61.683594 C 19.960938 61.75 20.5625 61.808594 20.882812 61.808594 C 21.207031 61.808594 21.691406 61.851562 21.96875 61.902344 C 22.242188 61.941406 22.796875 62.035156 23.1875 62.101562 C 23.589844 62.160156 23.992188 62.253906 24.089844 62.300781 C 24.183594 62.359375 24.535156 62.453125 24.867188 62.511719 C 25.703125 62.671875 27.460938 63.171875 28.40625 63.53125 C 28.730469 63.648438 29.183594 63.816406 29.410156 63.898438 C 29.640625 63.984375 30.042969 64.140625 30.304688 64.257812 C 30.761719 64.460938 30.789062 64.46875 30.863281 64.324219 C 30.914062 64.234375 30.929688 62.644531 30.894531 60.105469 C 30.855469 56.550781 30.828125 56.007812 30.710938 55.867188 C 30.621094 55.75 30.402344 55.683594 29.976562 55.632812 C 29.652344 55.589844 29.332031 55.53125 29.28125 55.496094 C 29.234375 55.464844 28.921875 55.40625 28.605469 55.363281 C 28.289062 55.324219 27.929688 55.238281 27.804688 55.171875 C 27.667969 55.105469 27.34375 55.03125 27.066406 55.003906 C 26.792969 54.972656 26.25 54.894531 25.855469 54.828125 C 21.535156 54.101562 18.839844 53.917969 14.195312 54.042969 Z M 14.195312 54.042969 " fill-opacity="1" fill-rule="nonzero"/><g clip-path="url(#e4352ad85f)"><path fill="#0097b2" d="M 125.003906 37.910156 C 124.355469 37.910156 121.660156 39.027344 112.671875 42.890625 C 105.890625 45.8125 100.460938 48.269531 100.632812 48.34375 C 100.808594 48.417969 103.359375 48.8125 106.332031 49.179688 C 109.304688 49.546875 111.761719 49.890625 111.8125 49.917969 C 111.851562 49.957031 110.371094 52.917969 108.003906 57.554688 C 107.050781 59.425781 105.953125 61.566406 104.753906 63.898438 C 103.519531 66.289062 102.183594 68.878906 100.78125 71.578125 L 98.597656 75.78125 L 88.84375 69.097656 L 79.117188 62.417969 L 76.734375 65.242188 C 74.753906 67.632812 72.707031 70.121094 70.867188 72.371094 C 67.46875 76.527344 64.785156 79.863281 64.53125 80.246094 C 64.515625 80.269531 64.511719 80.285156 64.515625 80.285156 C 64.515625 80.285156 64.519531 80.28125 64.527344 80.273438 C 64.53125 80.273438 64.535156 80.269531 64.535156 80.269531 C 64.535156 80.269531 64.535156 80.269531 64.535156 80.265625 L 64.539062 80.265625 C 64.636719 80.195312 64.710938 80.144531 64.769531 80.144531 C 64.933594 80.144531 64.945312 80.539062 64.945312 81.820312 L 64.945312 82.007812 C 65.132812 82.707031 65.34375 83.378906 65.566406 83.988281 C 65.671875 84.273438 65.777344 84.550781 65.886719 84.828125 L 70.71875 79.195312 C 70.804688 79.09375 70.886719 78.996094 70.972656 78.898438 C 75.328125 73.824219 78.925781 69.714844 79.042969 69.714844 C 79.046875 69.710938 79.046875 69.710938 79.046875 69.710938 C 79.195312 69.710938 80.507812 70.882812 81.992188 72.339844 C 94.289062 84.277344 99.203125 88.925781 99.5625 88.925781 C 99.570312 88.925781 99.574219 88.925781 99.578125 88.921875 C 99.730469 88.769531 102.933594 83.148438 108.472656 73.300781 C 109.855469 70.839844 111.386719 68.117188 113.050781 65.148438 C 113.34375 64.621094 113.644531 64.089844 113.949219 63.546875 C 116.476562 59.027344 118.6875 55.171875 118.835938 55 C 118.855469 54.980469 118.882812 54.96875 118.914062 54.96875 C 119.222656 54.96875 120.113281 56.015625 122.542969 59.226562 C 124.414062 61.675781 125.96875 63.671875 126.054688 63.671875 C 126.054688 63.671875 126.054688 63.671875 126.058594 63.671875 C 126.179688 63.574219 125.320312 38.347656 125.171875 37.980469 C 125.152344 37.933594 125.101562 37.910156 125.003906 37.910156 Z M 125.003906 37.910156 " fill-opacity="1" fill-rule="nonzero"/></g></svg>