<svg xmlns="http://www.w3.org/2000/svg" xmlns:xlink="http://www.w3.org/1999/xlink" width="200" zoomAndPan="magnify" viewBox="0 0 150 149.999998" height="200" preserveAspectRatio="xMidYMid meet" version="1.0"><path fill="#ffffff" d="M 57.679688 5.058594 C 57.984375 2.265625 60.582031 -0.0117188 63.390625 0.0742188 C 71.117188 0.0546875 78.855469 0.03125 86.59375 0.0898438 C 89.339844 0.0585938 91.828125 2.328125 92.125 5.050781 C 93.054688 10.640625 93.945312 16.246094 94.871094 21.84375 C 95.921875 22.261719 96.980469 22.6875 98.039062 23.113281 C 102.894531 19.792969 107.714844 16.40625 112.597656 13.128906 C 114.886719 11.523438 118.230469 12 120.058594 14.082031 C 125.46875 19.46875 130.886719 24.851562 136.28125 30.253906 C 138.285156 32.117188 138.625 35.4375 136.988281 37.644531 C 133.636719 42.425781 130.214844 47.160156 126.84375 51.929688 C 127.175781 52.90625 127.503906 53.878906 127.832031 54.859375 C 133.527344 55.824219 139.238281 56.683594 144.941406 57.675781 C 147.726562 57.996094 150.003906 60.601562 149.890625 63.410156 C 149.910156 71.136719 149.933594 78.867188 149.875 86.589844 C 149.90625 89.328125 147.640625 91.804688 144.941406 92.109375 C 139.335938 93.050781 133.726562 93.925781 128.125 94.859375 C 127.707031 95.910156 127.28125 96.964844 126.855469 98.015625 C 130.089844 102.949219 133.402344 107.832031 136.628906 112.769531 C 138.175781 114.945312 137.898438 118.15625 135.972656 120.007812 C 130.558594 125.46875 125.117188 130.890625 119.671875 136.316406 C 117.8125 138.277344 114.542969 138.617188 112.363281 137.007812 C 107.5625 133.652344 102.824219 130.214844 98.035156 126.84375 C 97.0625 127.175781 96.082031 127.503906 95.101562 127.832031 C 94.15625 133.519531 93.261719 139.226562 92.292969 144.910156 C 91.996094 147.703125 89.398438 149.980469 86.585938 149.878906 C 78.863281 149.902344 71.144531 149.925781 63.421875 149.871094 C 60.652344 149.925781 58.164062 147.625 57.855469 144.910156 C 56.914062 139.320312 56.039062 133.714844 55.117188 128.125 C 54.058594 127.699219 53 127.273438 51.941406 126.835938 C 47.09375 130.148438 42.28125 133.511719 37.414062 136.796875 C 35.136719 138.425781 31.78125 137.980469 29.941406 135.902344 C 24.5625 130.488281 19.121094 125.121094 13.765625 119.679688 C 11.746094 117.714844 11.710938 114.328125 13.417969 112.152344 C 16.644531 107.433594 19.890625 102.738281 23.125 98.027344 C 22.800781 97.050781 22.476562 96.078125 22.152344 95.097656 C 16.464844 94.140625 10.75 93.257812 5.0625 92.289062 C 2.289062 91.984375 0.0195312 89.40625 0.0898438 86.613281 C 0.0585938 78.875 0.0546875 71.140625 0.0976562 63.40625 C 0.0625 60.652344 2.324219 58.167969 5.039062 57.84375 C 10.636719 56.898438 16.253906 56.035156 21.859375 55.097656 C 22.273438 54.035156 22.699219 52.984375 23.125 51.933594 C 19.8125 47.078125 16.441406 42.25 13.15625 37.382812 C 11.535156 35.101562 11.996094 31.75 14.078125 29.921875 C 19.367188 24.632812 24.652344 19.347656 29.941406 14.058594 C 31.769531 11.992188 35.097656 11.53125 37.375 13.128906 C 42.25 16.421875 47.078125 19.792969 51.9375 23.105469 C 52.902344 22.796875 53.878906 22.472656 54.84375 22.164062 C 55.859375 16.472656 56.679688 10.753906 57.679688 5.058594 Z M 69.578125 46.667969 C 61.386719 48.179688 54.035156 53.480469 49.945312 60.726562 C 45.882812 67.742188 45.074219 76.515625 47.675781 84.179688 C 50.238281 91.882812 56.222656 98.34375 63.695312 101.488281 C 70.804688 104.550781 79.152344 104.550781 86.261719 101.496094 C 92.21875 98.984375 97.261719 94.386719 100.328125 88.699219 C 104.023438 81.949219 104.820312 73.679688 102.484375 66.347656 C 100.300781 59.28125 95.253906 53.160156 88.742188 49.652344 C 82.957031 46.464844 76.058594 45.4375 69.578125 46.667969 Z M 69.578125 46.667969 " fill-opacity="1" fill-rule="nonzero"/><path fill="#ffffff" d="M 71.042969 58.136719 C 79.382812 55.976562 88.699219 61.152344 91.332031 69.328125 C 93.28125 74.789062 92.191406 81.195312 88.546875 85.699219 C 85.046875 90.203125 79.203125 92.746094 73.527344 92.207031 C 68.285156 91.800781 63.34375 88.828125 60.5 84.414062 C 57.472656 79.859375 56.859375 73.839844 58.855469 68.761719 C 60.835938 63.492188 65.5625 59.378906 71.042969 58.136719 Z M 71.042969 58.136719 " fill-opacity="1" fill-rule="nonzero"/></svg>