<svg xmlns="http://www.w3.org/2000/svg" xmlns:xlink="http://www.w3.org/1999/xlink" width="200" zoomAndPan="magnify" viewBox="0 0 150 149.999998" height="200" preserveAspectRatio="xMidYMid meet" version="1.0"><path fill="#0097b2" d="M 93.339844 125 C 91.007812 120.398438 90.050781 115.179688 90.640625 110 L 59.363281 110 C 59.953125 115.179688 58.996094 120.398438 56.664062 125 Z M 93.339844 125 " fill-opacity="1" fill-rule="nonzero"/><path fill="#0097b2" d="M 0 102.8125 C 0 104.019531 0.980469 105 2.1875 105 L 147.8125 105 C 149.019531 105 150 104.019531 150 102.8125 L 150 95 L 0 95 Z M 140 97.5 L 142.5 97.5 C 143.878906 97.5 145 98.621094 145 100 C 145 101.378906 143.878906 102.5 142.5 102.5 L 140 102.5 C 138.621094 102.5 137.5 101.378906 137.5 100 C 137.5 98.621094 138.621094 97.5 140 97.5 Z M 130 97.5 L 132.5 97.5 C 133.878906 97.5 135 98.621094 135 100 C 135 101.378906 133.878906 102.5 132.5 102.5 L 130 102.5 C 128.621094 102.5 127.5 101.378906 127.5 100 C 127.5 98.621094 128.621094 97.5 130 97.5 Z M 120 97.5 L 122.5 97.5 C 123.878906 97.5 125 98.621094 125 100 C 125 101.378906 123.878906 102.5 122.5 102.5 L 120 102.5 C 118.621094 102.5 117.5 101.378906 117.5 100 C 117.5 98.621094 118.621094 97.5 120 97.5 Z M 55 97.5 L 95 97.5 C 96.378906 97.5 97.5 98.621094 97.5 100 C 97.5 101.378906 96.378906 102.5 95 102.5 L 55 102.5 C 53.621094 102.5 52.5 101.378906 52.5 100 C 52.5 98.621094 53.621094 97.5 55 97.5 Z M 25 97.5 L 35 97.5 C 36.378906 97.5 37.5 98.621094 37.5 100 C 37.5 101.378906 36.378906 102.5 35 102.5 L 25 102.5 C 23.621094 102.5 22.5 101.378906 22.5 100 C 22.5 98.621094 23.621094 97.5 25 97.5 Z M 7.5 97.5 L 17.5 97.5 C 18.878906 97.5 20 98.621094 20 100 C 20 101.378906 18.878906 102.5 17.5 102.5 L 7.5 102.5 C 6.121094 102.5 5 101.378906 5 100 C 5 98.621094 6.121094 97.5 7.5 97.5 Z M 7.5 97.5 " fill-opacity="1" fill-rule="nonzero"/><path fill="#0097b2" d="M 12.011719 48.519531 C 12.476562 50.8125 13.367188 52.964844 14.664062 54.921875 C 15.320312 55.914062 15.1875 57.230469 14.347656 58.070312 L 12.890625 59.53125 L 15.214844 61.855469 L 16.675781 60.398438 C 17.515625 59.558594 18.832031 59.425781 19.824219 60.082031 C 21.78125 61.378906 23.933594 62.269531 26.226562 62.734375 C 27.390625 62.972656 28.226562 63.996094 28.226562 65.1875 L 28.226562 67.246094 L 31.519531 67.246094 L 31.519531 65.1875 C 31.519531 63.996094 32.355469 62.972656 33.519531 62.734375 C 35.8125 62.269531 37.964844 61.378906 39.921875 60.082031 C 40.914062 59.425781 42.230469 59.558594 43.070312 60.398438 L 44.53125 61.855469 L 46.855469 59.53125 L 45.398438 58.070312 C 44.558594 57.230469 44.425781 55.914062 45.082031 54.921875 C 46.378906 52.964844 47.269531 50.8125 47.734375 48.519531 C 47.972656 47.355469 48.996094 46.519531 50.1875 46.519531 L 52.246094 46.519531 L 52.246094 43.226562 L 50.1875 43.226562 C 48.996094 43.226562 47.972656 42.390625 47.734375 41.226562 C 47.269531 38.933594 46.378906 36.78125 45.082031 34.824219 C 44.425781 33.832031 44.558594 32.515625 45.398438 31.675781 L 46.855469 30.214844 L 44.53125 27.890625 L 43.070312 29.347656 C 42.230469 30.1875 40.914062 30.320312 39.921875 29.664062 C 37.964844 28.367188 35.8125 27.476562 33.519531 27.011719 C 32.355469 26.773438 31.519531 25.75 31.519531 24.5625 L 31.519531 22.5 L 28.226562 22.5 L 28.226562 24.5625 C 28.226562 25.75 27.390625 26.773438 26.226562 27.011719 C 23.933594 27.476562 21.78125 28.367188 19.824219 29.664062 C 18.832031 30.320312 17.515625 30.1875 16.675781 29.347656 L 15.214844 27.890625 L 12.890625 30.214844 L 14.347656 31.675781 C 15.1875 32.515625 15.320312 33.832031 14.664062 34.824219 C 13.367188 36.78125 12.476562 38.933594 12.011719 41.226562 C 11.773438 42.390625 10.75 43.226562 9.5625 43.226562 L 7.5 43.226562 L 7.5 46.519531 L 9.5625 46.519531 C 10.75 46.519531 11.773438 47.355469 12.011719 48.519531 Z M 30 30 C 38.269531 30 45 36.730469 45 45 C 45 53.269531 38.269531 60 30 60 C 21.730469 60 15 53.269531 15 45 C 15 36.730469 21.730469 30 30 30 Z M 30 30 " fill-opacity="1" fill-rule="nonzero"/><path fill="#0097b2" d="M 40 45 C 40 45.65625 39.9375 46.308594 39.808594 46.949219 C 39.679688 47.59375 39.488281 48.21875 39.238281 48.828125 C 38.988281 49.433594 38.679688 50.007812 38.316406 50.554688 C 37.949219 51.101562 37.535156 51.605469 37.070312 52.070312 C 36.605469 52.535156 36.101562 52.949219 35.554688 53.316406 C 35.007812 53.679688 34.433594 53.988281 33.828125 54.238281 C 33.21875 54.488281 32.59375 54.679688 31.949219 54.808594 C 31.308594 54.9375 30.65625 55 30 55 C 29.34375 55 28.691406 54.9375 28.050781 54.808594 C 27.40625 54.679688 26.78125 54.488281 26.171875 54.238281 C 25.566406 53.988281 24.992188 53.679688 24.445312 53.316406 C 23.898438 52.949219 23.394531 52.535156 22.929688 52.070312 C 22.464844 51.605469 22.050781 51.101562 21.683594 50.554688 C 21.320312 50.007812 21.011719 49.433594 20.761719 48.828125 C 20.511719 48.21875 20.320312 47.59375 20.191406 46.949219 C 20.0625 46.308594 20 45.65625 20 45 C 20 44.34375 20.0625 43.691406 20.191406 43.050781 C 20.320312 42.40625 20.511719 41.78125 20.761719 41.171875 C 21.011719 40.566406 21.320312 39.992188 21.683594 39.445312 C 22.050781 38.898438 22.464844 38.394531 22.929688 37.929688 C 23.394531 37.464844 23.898438 37.050781 24.445312 36.683594 C 24.992188 36.320312 25.566406 36.011719 26.171875 35.761719 C 26.78125 35.511719 27.40625 35.320312 28.050781 35.191406 C 28.691406 35.0625 29.34375 35 30 35 C 30.65625 35 31.308594 35.0625 31.949219 35.191406 C 32.59375 35.320312 33.21875 35.511719 33.828125 35.761719 C 34.433594 36.011719 35.007812 36.320312 35.554688 36.683594 C 36.101562 37.050781 36.605469 37.464844 37.070312 37.929688 C 37.535156 38.394531 37.949219 38.898438 38.316406 39.445312 C 38.679688 39.992188 38.988281 40.566406 39.238281 41.171875 C 39.488281 41.78125 39.679688 42.40625 39.808594 43.050781 C 39.9375 43.691406 40 44.34375 40 45 Z M 40 45 " fill-opacity="1" fill-rule="nonzero"/><path fill="#0097b2" d="M 105.519531 130 L 44.480469 130 C 44.210938 130 43.972656 130.148438 43.851562 130.386719 L 41.546875 135 L 108.453125 135 L 106.148438 130.386719 C 106.027344 130.148438 105.789062 130 105.519531 130 Z M 105.519531 130 " fill-opacity="1" fill-rule="nonzero"/><path fill="#0097b2" d="M 67.5 75.3125 C 67.5 76.519531 68.480469 77.5 69.6875 77.5 L 140.3125 77.5 C 141.519531 77.5 142.5 76.519531 142.5 75.3125 L 142.5 32.5 L 67.5 32.5 Z M 97.5 65 L 92.5 65 C 91.121094 65 90 63.878906 90 62.5 C 90 61.121094 91.121094 60 92.5 60 L 97.5 60 C 98.878906 60 100 61.121094 100 62.5 C 100 63.878906 98.878906 65 97.5 65 Z M 105 57.5 L 100 57.5 C 98.621094 57.5 97.5 56.378906 97.5 55 C 97.5 53.621094 98.621094 52.5 100 52.5 L 105 52.5 C 106.378906 52.5 107.5 53.621094 107.5 55 C 107.5 56.378906 106.378906 57.5 105 57.5 Z M 110 62.5 C 110 63.878906 108.878906 65 107.5 65 L 105 65 C 103.621094 65 102.5 63.878906 102.5 62.5 C 102.5 61.121094 103.621094 60 105 60 L 107.5 60 C 108.878906 60 110 61.121094 110 62.5 Z M 110 72.5 L 102.5 72.5 C 101.121094 72.5 100 71.378906 100 70 C 100 68.621094 101.121094 67.5 102.5 67.5 L 110 67.5 C 111.378906 67.5 112.5 68.621094 112.5 70 C 112.5 71.378906 111.378906 72.5 110 72.5 Z M 120 72.5 L 117.5 72.5 C 116.121094 72.5 115 71.378906 115 70 C 115 68.621094 116.121094 67.5 117.5 67.5 L 120 67.5 C 121.378906 67.5 122.5 68.621094 122.5 70 C 122.5 71.378906 121.378906 72.5 120 72.5 Z M 122.5 65 L 115 65 C 113.621094 65 112.5 63.878906 112.5 62.5 C 112.5 61.121094 113.621094 60 115 60 L 122.5 60 C 123.878906 60 125 61.121094 125 62.5 C 125 63.878906 123.878906 65 122.5 65 Z M 122.5 52.5 C 122.5 51.121094 123.621094 50 125 50 L 127.5 50 C 128.878906 50 130 51.121094 130 52.5 C 130 53.878906 128.878906 55 127.5 55 L 125 55 C 123.621094 55 122.5 53.878906 122.5 52.5 Z M 137.5 72.5 L 127.5 72.5 C 126.121094 72.5 125 71.378906 125 70 C 125 68.621094 126.121094 67.5 127.5 67.5 L 137.5 67.5 C 138.878906 67.5 140 68.621094 140 70 C 140 71.378906 138.878906 72.5 137.5 72.5 Z M 137.5 65 L 130 65 C 128.621094 65 127.5 63.878906 127.5 62.5 C 127.5 61.121094 128.621094 60 130 60 L 137.5 60 C 138.878906 60 140 61.121094 140 62.5 C 140 63.878906 138.878906 65 137.5 65 Z M 137.5 55 L 135 55 C 133.621094 55 132.5 53.878906 132.5 52.5 C 132.5 51.121094 133.621094 50 135 50 L 137.5 50 C 138.878906 50 140 51.121094 140 52.5 C 140 53.878906 138.878906 55 137.5 55 Z M 137.5 47.5 L 135 47.5 C 133.621094 47.5 132.5 46.378906 132.5 45 C 132.5 43.621094 133.621094 42.5 135 42.5 L 137.5 42.5 C 138.878906 42.5 140 43.621094 140 45 C 140 46.378906 138.878906 47.5 137.5 47.5 Z M 127.5 35 L 137.5 35 C 138.878906 35 140 36.121094 140 37.5 C 140 38.878906 138.878906 40 137.5 40 L 127.5 40 C 126.121094 40 125 38.878906 125 37.5 C 125 36.121094 126.121094 35 127.5 35 Z M 125 42.5 L 127.5 42.5 C 128.878906 42.5 130 43.621094 130 45 C 130 46.378906 128.878906 47.5 127.5 47.5 L 125 47.5 C 123.621094 47.5 122.5 46.378906 122.5 45 C 122.5 43.621094 123.621094 42.5 125 42.5 Z M 115 35 L 120 35 C 121.378906 35 122.5 36.121094 122.5 37.5 C 122.5 38.878906 121.378906 40 120 40 L 115 40 C 113.621094 40 112.5 38.878906 112.5 37.5 C 112.5 36.121094 113.621094 35 115 35 Z M 115 42.5 L 117.5 42.5 C 118.878906 42.5 120 43.621094 120 45 C 120 46.378906 118.878906 47.5 117.5 47.5 L 115 47.5 C 113.621094 47.5 112.5 46.378906 112.5 45 C 112.5 43.621094 113.621094 42.5 115 42.5 Z M 112.5 50 L 117.5 50 C 118.878906 50 120 51.121094 120 52.5 C 120 53.878906 118.878906 55 117.5 55 L 112.5 55 C 111.121094 55 110 53.878906 110 52.5 C 110 51.121094 111.121094 50 112.5 50 Z M 98.613281 39.578125 C 97.464844 38.8125 97.152344 37.261719 97.917969 36.113281 C 98.6875 34.964844 100.238281 34.652344 101.386719 35.417969 L 108.886719 40.417969 C 109.582031 40.882812 110 41.664062 110 42.5 C 110 43.335938 109.582031 44.117188 108.886719 44.578125 L 101.386719 49.578125 C 100.960938 49.863281 100.480469 50 100.003906 50 C 99.195312 50 98.402344 49.609375 97.917969 48.886719 C 97.152344 47.738281 97.464844 46.1875 98.613281 45.417969 L 102.992188 42.5 Z M 85.265625 46.382812 L 90.265625 36.382812 C 90.882812 35.148438 92.382812 34.644531 93.617188 35.265625 C 94.851562 35.882812 95.355469 37.382812 94.734375 38.617188 L 89.734375 48.617188 C 89.296875 49.492188 88.414062 50 87.5 50 C 87.121094 50 86.742188 49.914062 86.382812 49.734375 C 85.148438 49.117188 84.648438 47.617188 85.265625 46.382812 Z M 87.5 52.5 L 92.5 52.5 C 93.878906 52.5 95 53.621094 95 55 C 95 56.378906 93.878906 57.5 92.5 57.5 L 87.5 57.5 C 86.121094 57.5 85 56.378906 85 55 C 85 53.621094 86.121094 52.5 87.5 52.5 Z M 71.113281 40.421875 L 78.613281 35.421875 C 79.761719 34.65625 81.3125 34.964844 82.078125 36.113281 C 82.847656 37.261719 82.535156 38.8125 81.386719 39.582031 L 77.007812 42.5 L 81.386719 45.421875 C 82.535156 46.1875 82.847656 47.738281 82.078125 48.886719 C 81.597656 49.609375 80.804688 50 79.996094 50 C 79.519531 50 79.039062 49.863281 78.613281 49.578125 L 71.113281 44.578125 C 70.417969 44.117188 70 43.335938 70 42.5 C 70 41.664062 70.417969 40.882812 71.113281 40.421875 Z M 72.5 52.5 L 80 52.5 C 81.378906 52.5 82.5 53.621094 82.5 55 C 82.5 56.378906 81.378906 57.5 80 57.5 L 72.5 57.5 C 71.121094 57.5 70 56.378906 70 55 C 70 53.621094 71.121094 52.5 72.5 52.5 Z M 72.5 60 L 85 60 C 86.378906 60 87.5 61.121094 87.5 62.5 C 87.5 63.878906 86.378906 65 85 65 L 72.5 65 C 71.121094 65 70 63.878906 70 62.5 C 70 61.121094 71.121094 60 72.5 60 Z M 72.5 67.5 L 95 67.5 C 96.378906 67.5 97.5 68.621094 97.5 70 C 97.5 71.378906 96.378906 72.5 95 72.5 L 72.5 72.5 C 71.121094 72.5 70 71.378906 70 70 C 70 68.621094 71.121094 67.5 72.5 67.5 Z M 72.5 67.5 " fill-opacity="1" fill-rule="nonzero"/><path fill="#0097b2" d="M 147.8125 15 L 2.1875 15 C 0.980469 15 0 15.980469 0 17.1875 L 0 90 L 150 90 L 150 17.1875 C 150 15.980469 149.019531 15 147.8125 15 Z M 60 77.5 C 60 78.878906 58.878906 80 57.5 80 L 47.5 80 C 46.121094 80 45 78.878906 45 77.5 C 45 76.121094 46.121094 75 47.5 75 L 57.5 75 C 58.878906 75 60 76.121094 60 77.5 Z M 2.5 40.726562 C 2.5 39.347656 3.621094 38.226562 5 38.226562 L 7.609375 38.226562 C 8.0625 36.703125 8.671875 35.234375 9.433594 33.832031 L 7.585938 31.984375 C 7.117188 31.515625 6.855469 30.878906 6.855469 30.214844 C 6.855469 29.554688 7.117188 28.917969 7.585938 28.449219 L 13.449219 22.585938 C 13.917969 22.117188 14.554688 21.855469 15.21875 21.855469 C 15.878906 21.855469 16.515625 22.117188 16.984375 22.585938 L 18.832031 24.433594 C 20.234375 23.671875 21.703125 23.0625 23.226562 22.609375 L 23.226562 20 C 23.226562 18.621094 24.347656 17.5 25.726562 17.5 L 34.019531 17.5 C 35.398438 17.5 36.519531 18.621094 36.519531 20 L 36.519531 22.609375 C 38.042969 23.0625 39.511719 23.671875 40.914062 24.433594 L 42.761719 22.585938 C 43.230469 22.117188 43.867188 21.855469 44.53125 21.855469 C 45.191406 21.855469 45.828125 22.117188 46.296875 22.585938 L 52.160156 28.449219 C 52.628906 28.917969 52.890625 29.554688 52.890625 30.21875 C 52.890625 30.878906 52.628906 31.515625 52.160156 31.984375 L 50.3125 33.832031 C 51.074219 35.234375 51.679688 36.703125 52.136719 38.226562 L 54.746094 38.226562 C 56.125 38.226562 57.246094 39.347656 57.246094 40.726562 L 57.246094 49.019531 C 57.246094 50.398438 56.125 51.519531 54.746094 51.519531 L 52.136719 51.519531 C 51.679688 53.042969 51.074219 54.511719 50.3125 55.914062 L 52.160156 57.761719 C 52.628906 58.230469 52.890625 58.867188 52.890625 59.53125 C 52.890625 60.191406 52.628906 60.828125 52.160156 61.296875 L 46.296875 67.160156 C 45.828125 67.628906 45.191406 67.890625 44.53125 67.890625 C 43.867188 67.890625 43.230469 67.628906 42.761719 67.160156 L 40.914062 65.3125 C 39.511719 66.074219 38.042969 66.679688 36.519531 67.136719 L 36.519531 69.746094 C 36.519531 71.125 35.398438 72.246094 34.019531 72.246094 L 25.726562 72.246094 C 24.347656 72.246094 23.226562 71.125 23.226562 69.746094 L 23.226562 67.136719 C 21.703125 66.679688 20.234375 66.074219 18.832031 65.3125 L 16.984375 67.160156 C 16.515625 67.628906 15.878906 67.890625 15.214844 67.890625 C 14.554688 67.890625 13.917969 67.628906 13.449219 67.160156 L 7.585938 61.296875 C 7.117188 60.828125 6.855469 60.191406 6.855469 59.53125 C 6.855469 58.867188 7.117188 58.230469 7.585938 57.761719 L 9.433594 55.914062 C 8.671875 54.511719 8.0625 53.042969 7.609375 51.519531 L 5 51.519531 C 3.621094 51.519531 2.5 50.398438 2.5 49.019531 Z M 42.5 77.5 C 42.5 78.878906 41.378906 80 40 80 L 32.5 80 C 31.121094 80 30 78.878906 30 77.5 C 30 76.121094 31.121094 75 32.5 75 L 40 75 C 41.378906 75 42.5 76.121094 42.5 77.5 Z M 27.5 77.5 C 27.5 78.878906 26.378906 80 25 80 L 17.5 80 C 16.121094 80 15 78.878906 15 77.5 C 15 76.121094 16.121094 75 17.5 75 L 25 75 C 26.378906 75 27.5 76.121094 27.5 77.5 Z M 5 75 L 10 75 C 11.378906 75 12.5 76.121094 12.5 77.5 C 12.5 78.878906 11.378906 80 10 80 L 5 80 C 3.621094 80 2.5 78.878906 2.5 77.5 C 2.5 76.121094 3.621094 75 5 75 Z M 17.5 87.5 L 5 87.5 C 3.621094 87.5 2.5 86.378906 2.5 85 C 2.5 83.621094 3.621094 82.5 5 82.5 L 17.5 82.5 C 18.878906 82.5 20 83.621094 20 85 C 20 86.378906 18.878906 87.5 17.5 87.5 Z M 35 87.5 L 25 87.5 C 23.621094 87.5 22.5 86.378906 22.5 85 C 22.5 83.621094 23.621094 82.5 25 82.5 L 35 82.5 C 36.378906 82.5 37.5 83.621094 37.5 85 C 37.5 86.378906 36.378906 87.5 35 87.5 Z M 47.5 87.5 L 42.5 87.5 C 41.121094 87.5 40 86.378906 40 85 C 40 83.621094 41.121094 82.5 42.5 82.5 L 47.5 82.5 C 48.878906 82.5 50 83.621094 50 85 C 50 86.378906 48.878906 87.5 47.5 87.5 Z M 60 87.5 L 55 87.5 C 53.621094 87.5 52.5 86.378906 52.5 85 C 52.5 83.621094 53.621094 82.5 55 82.5 L 60 82.5 C 61.378906 82.5 62.5 83.621094 62.5 85 C 62.5 86.378906 61.378906 87.5 60 87.5 Z M 147.5 75.3125 C 147.5 79.277344 144.277344 82.5 140.3125 82.5 L 69.6875 82.5 C 65.722656 82.5 62.5 79.277344 62.5 75.3125 L 62.5 24.6875 C 62.5 20.722656 65.722656 17.5 69.6875 17.5 L 140.3125 17.5 C 144.277344 17.5 147.5 20.722656 147.5 24.6875 Z M 147.5 75.3125 " fill-opacity="1" fill-rule="nonzero"/><path fill="#0097b2" d="M 140.3125 22.5 L 69.6875 22.5 C 68.480469 22.5 67.5 23.480469 67.5 24.6875 L 67.5 27.5 L 142.5 27.5 L 142.5 24.6875 C 142.5 23.480469 141.519531 22.5 140.3125 22.5 Z M 140.3125 22.5 " fill-opacity="1" fill-rule="nonzero"/></svg>